<?xml version="1.0" encoding="utf-8"?>
<!-- Generator: Adobe Illustrator 26.0.0, SVG Export Plug-In . SVG Version: 6.00 Build 0)  -->
<svg version="1.1" id="Capa_5" xmlns="http://www.w3.org/2000/svg" xmlns:xlink="http://www.w3.org/1999/xlink" x="0px" y="0px"
	 viewBox="0 0 707.4 612" style="enable-background:new 0 0 707.4 612;" xml:space="preserve">
<style type="text/css">
	.st0{fill:#D9041B;}
	.st1{fill:#676767;}
</style>
<g>
	<g>
		<path class="st0" d="M187.9,245.6c0,0,80,25.2,123-22.4L310.6,509c0,0,1.1,19,17.6,25.2h14c0,0,17.1-1.1,18.5-24.9v-81.4l189,0.3
			c0,0,22.9-7.5,22.6-27.7v-18.5c0,0-2.2-19-21.8-22.6l-191.3-0.6l0.6-192.1h177.8c36.9,0,73.3,20.1,98.1,45.9
			c65.1,67.7,76.6,184.3,44.5,269.8c-23.2,61.5-73.5,121.4-145.1,121.4h-347V245.6H187.9z"/>
		<path class="st0" d="M213.9,202.8l-55.4-55.1c-10.3-10.3-10.3-27.1,0-37.5l55.4-55.4c10.3-10.3,27.1-10.3,37.5,0l55.4,55.4
			c10.3,10.3,10.3,27.1,0,37.5l-55.4,55.4C241,213.2,224.2,213.2,213.9,202.8z"/>
	</g>
	<g>
		<path class="st1" d="M348.4,120.9c-3.6-64-58.4-113.2-122.7-109.6c-64,3.6-113.2,58.4-109.6,122.5S174.4,247,238.5,243.4
			C302.8,239.7,351.7,184.9,348.4,120.9z M232.3,228c-55.6,0-100.7-45-100.7-100.7s45-100.7,100.7-100.7S333,71.7,333,127.3
			S288,228,232.3,228z"/>
		<path class="st1" d="M146.2,250.6l-97,104.6c-7,7.5-19,8.1-26.6,1.1l-8.1-7.5c-7.8-7.3-8.4-19.6-1.1-27.4l96.5-104
			c2.2-2.2,5.9-2.5,8.1-0.3l2.8,2.5l23.2-25.2l21.8,20.4L142.6,240l2.8,2.5C148.4,244.5,148.4,248.1,146.2,250.6z"/>
	</g>
</g>
</svg>
