<?xml version="1.0" encoding="utf-8"?>
<!-- Generator: Adobe Illustrator 19.2.1, SVG Export Plug-In . SVG Version: 6.00 Build 0)  -->
<svg version="1.1" id="Capa_5" xmlns="http://www.w3.org/2000/svg" xmlns:xlink="http://www.w3.org/1999/xlink" x="0px" y="0px"
	 viewBox="0 0 792 232" style="enable-background:new 0 0 792 232;" xml:space="preserve">
<style type="text/css">
	.st0{fill:none;stroke:#000000;stroke-miterlimit:10;}
	.st1{fill:#D9041B;}
	.st2{fill:#676767;}
</style>
<g>
	<g>
		<g>
			<path d="M287.3,198.1v17.2h-3v-17.2H287.3z"/>
			<path d="M298.6,203l0.1,2c1-1.5,2.4-2.2,4.4-2.2c1.1,0,1.9,0.2,2.6,0.6c0.6,0.4,1.1,0.9,1.4,1.5s0.5,1.3,0.6,2.1
				c0.1,0.7,0.1,1.7,0.1,2.7v5.8h-2.3v-5.6c0-0.9,0-1.5,0-2c0-0.4-0.1-0.8-0.2-1.1c-0.2-0.7-0.5-1.2-1-1.5s-1.1-0.5-1.7-0.5
				c-0.8,0-1.5,0.2-2.1,0.7s-1,1.1-1.3,1.9c-0.1,0.2-0.1,0.5-0.2,0.8c0,0.3-0.1,0.6-0.1,1c0,0.3,0,1,0,1.8v4.6h-2.4v-6.1
				c0-0.7,0-1.4,0-1.9c0-0.6,0-1.3,0-2.1c0-0.8,0-1.6-0.1-2.3h2.2V203z"/>
			<path d="M328.3,203.2l-4.8,11.8h-2.8l-4.9-11.8h2.7l2.7,6.8c0.2,0.4,0.3,0.8,0.4,1.1c0.1,0.3,0.2,0.6,0.3,0.9
				c0.1,0.3,0.2,0.6,0.2,0.9c0.1-0.5,0.3-1.2,0.6-1.9l3.1-7.9h2.5V203.2z"/>
			<path d="M337.7,209.7c0.2,1.2,0.6,2.1,1.4,2.8c0.7,0.7,1.7,1,2.8,1c0.7,0,1.3-0.1,2-0.3c0.6-0.2,1.3-0.5,2-0.8v2.1
				c-0.8,0.3-1.4,0.5-2.1,0.7c-0.6,0.1-1.3,0.2-2,0.2c-1,0-1.9-0.1-2.6-0.4c-0.8-0.3-1.5-0.7-2-1.3c-0.6-0.6-1-1.2-1.3-2
				s-0.5-1.7-0.5-2.6c0-1.2,0.2-2.3,0.7-3.2c0.5-0.9,1.2-1.6,2.1-2.1s1.9-0.8,3.1-0.8c1.4,0,2.4,0.3,3.2,0.9
				c0.8,0.6,1.4,1.4,1.7,2.5c0.3,1,0.5,2.1,0.5,3.4h-9V209.7z M337.8,208h6.7c-0.1-0.6-0.2-1.2-0.5-1.7c-0.2-0.5-0.6-0.9-1-1.2
				c-0.5-0.3-1-0.4-1.7-0.4c-0.9,0-1.7,0.3-2.3,0.9C338.3,206.1,337.9,206.9,337.8,208z"/>
			<path d="M566.1,209.9c0.2,1.2,0.6,2.1,1.4,2.8c0.7,0.7,1.7,1,2.8,1c0.7,0,1.3-0.1,2-0.3c0.6-0.2,1.3-0.5,2-0.8v2.1
				c-0.8,0.3-1.4,0.5-2.1,0.7c-0.6,0.1-1.3,0.2-2,0.2c-1,0-1.9-0.1-2.6-0.4c-0.8-0.3-1.5-0.7-2-1.3c-0.6-0.6-1-1.2-1.3-2
				s-0.5-1.7-0.5-2.6c0-1.2,0.2-2.3,0.7-3.2c0.5-0.9,1.2-1.6,2.1-2.1c0.9-0.5,1.9-0.8,3.1-0.8c1.4,0,2.4,0.3,3.2,0.9
				s1.4,1.4,1.7,2.5c0.3,1,0.5,2.1,0.5,3.4h-9V209.9z M566.1,208.2h6.7c-0.1-0.6-0.2-1.2-0.5-1.7c-0.2-0.5-0.6-0.9-1-1.2
				c-0.5-0.3-1-0.4-1.7-0.4c-0.9,0-1.7,0.3-2.3,0.9S566.3,207.2,566.1,208.2z"/>
			<path d="M362.7,203.5l-0.2,1.8c-0.9-0.4-1.7-0.6-2.7-0.6c-0.7,0-1.2,0.1-1.6,0.4s-0.6,0.6-0.6,1.1s0.2,0.8,0.6,1s1.1,0.6,2.1,1
				c1,0.5,1.8,0.9,2.3,1.4s0.8,1.1,0.8,1.9c0,0.5-0.1,1-0.3,1.5c-0.2,0.4-0.5,0.8-1,1.1c-0.4,0.3-0.9,0.6-1.5,0.7
				c-0.6,0.2-1.2,0.3-1.9,0.3c-1.2,0-2.4-0.2-3.4-0.7v-2c0.6,0.3,1.2,0.5,1.7,0.6s1,0.2,1.4,0.2c0.5,0,0.9-0.1,1.3-0.2
				s0.7-0.3,0.9-0.6c0.2-0.2,0.3-0.5,0.3-0.8c0-0.4-0.2-0.8-0.6-1c-0.4-0.3-1.1-0.6-2.1-1.1s-1.8-0.9-2.3-1.4s-0.8-1.1-0.8-1.8
				c0-0.7,0.2-1.3,0.6-1.8s0.9-0.9,1.6-1.2c0.7-0.3,1.5-0.4,2.4-0.4C360.6,203,361.6,203.2,362.7,203.5z"/>
			<path d="M590.6,203.5l-0.2,1.8c-0.9-0.4-1.7-0.6-2.7-0.6c-0.7,0-1.2,0.1-1.6,0.4c-0.4,0.3-0.6,0.6-0.6,1.1s0.2,0.8,0.6,1
				c0.4,0.2,1.1,0.6,2.1,1c1,0.5,1.8,0.9,2.3,1.4s0.8,1.1,0.8,1.9c0,0.5-0.1,1-0.3,1.5c-0.2,0.4-0.5,0.8-1,1.1
				c-0.4,0.3-0.9,0.6-1.5,0.7c-0.6,0.2-1.2,0.3-1.9,0.3c-1.2,0-2.4-0.2-3.4-0.7v-2c0.6,0.3,1.2,0.5,1.7,0.6s1,0.2,1.4,0.2
				c0.5,0,0.9-0.1,1.3-0.2c0.4-0.1,0.7-0.3,0.9-0.6c0.2-0.2,0.3-0.5,0.3-0.8c0-0.4-0.2-0.8-0.6-1c-0.4-0.3-1.1-0.6-2.1-1.1
				s-1.8-0.9-2.3-1.4s-0.8-1.1-0.8-1.8c0-0.7,0.2-1.3,0.6-1.8c0.4-0.5,0.9-0.9,1.6-1.2c0.7-0.3,1.5-0.4,2.4-0.4
				C588.5,203,589.5,203.2,590.6,203.5z"/>
			<path d="M375.5,200.3v3.4h3.1v1.7h-3.1v4.6c0,1.1,0,1.8,0.1,2.3c0.1,0.4,0.3,0.8,0.6,1c0.3,0.2,0.7,0.4,1.2,0.4s0.9-0.1,1.4-0.4
				v1.9c-0.7,0.2-1.4,0.3-2,0.3c-1,0-1.8-0.2-2.3-0.6s-0.8-1-1-1.6c-0.1-0.7-0.2-1.6-0.2-2.6v-5.3h-2.7v-1.7h2.7V201L375.5,200.3z"
				/>
			<path d="M390,197.8v2.5h-2.5v-2.5H390z M390,203.2v12.2h-2.3v-12.2H390z"/>
			<path d="M458.4,197.8v2.5h-2.5v-2.5H458.4z M458.4,203.2v12.2h-2.3v-12.2H458.4z"/>
			<path d="M410.2,203.4v9.8c0,1.2-0.1,2.2-0.2,3s-0.4,1.6-0.8,2.2s-1,1.1-1.7,1.4c-0.8,0.3-1.8,0.5-3,0.5c-1.5,0-3-0.3-4.5-0.8
				l0.2-2.1c1.5,0.7,2.9,1.1,4.2,1.1c0.8,0,1.5-0.2,2-0.5c0.6-0.3,1-0.7,1.2-1.3c0.2-0.3,0.3-0.6,0.3-1c0.1-0.4,0.1-0.8,0.1-1.3
				s0-0.9,0-1.1c-0.9,1.3-2.2,2-3.9,2c-1,0-1.9-0.2-2.7-0.7c-0.8-0.5-1.4-1.2-1.8-2.1s-0.6-1.9-0.6-3.1s0.2-2.2,0.6-3.2
				c0.4-0.9,1-1.7,1.8-2.2s1.7-0.8,2.7-0.8c0.9,0,1.7,0.2,2.4,0.6c0.7,0.4,1.2,1,1.5,1.6c0-0.1,0-0.1,0-0.2v-0.1v-0.3v-1.5h2.2
				V203.4z M404.7,205.1c-0.6,0-1.2,0.2-1.7,0.5c-0.5,0.4-0.9,0.9-1.2,1.5c-0.3,0.6-0.4,1.4-0.4,2.2c0,0.8,0.1,1.5,0.4,2.1
				s0.7,1.1,1.2,1.4s1.1,0.5,1.7,0.5c0.5,0,1-0.1,1.4-0.3c0.4-0.2,0.8-0.5,1.1-0.9c0.3-0.4,0.5-0.8,0.7-1.3s0.2-1.1,0.2-1.7
				c0-0.8-0.1-1.5-0.4-2.1s-0.7-1.1-1.2-1.5C405.9,205.3,405.3,205.1,404.7,205.1z"/>
			<path d="M420.7,204.1c0.7-0.4,1.4-0.7,2-0.8c0.7-0.2,1.4-0.3,2.2-0.3c1.2,0,2.2,0.2,3,0.6s1.4,1,1.7,1.8c0.3,0.6,0.4,1.7,0.4,3.3
				v2.3c0,0.9,0,1.7,0,2.3c0,0.7,0.1,1.2,0.1,1.7H428c0-0.3,0-0.6,0-0.9c0-0.4,0-0.8,0-1.1c-0.5,0.8-1.1,1.3-1.7,1.7
				s-1.5,0.5-2.5,0.5c-0.9,0-1.6-0.1-2.3-0.4c-0.7-0.3-1.2-0.7-1.5-1.2c-0.4-0.5-0.5-1.2-0.5-1.9c0-0.6,0.1-1.2,0.4-1.6
				c0.3-0.5,0.7-0.9,1.3-1.2c0.6-0.3,1.2-0.6,2.1-0.7c0.8-0.2,1.8-0.2,2.8-0.2c0.6,0,1.2,0,1.8,0c0-1-0.3-1.8-0.8-2.2
				c-0.5-0.5-1.3-0.7-2.4-0.7c-0.7,0-1.3,0.1-1.9,0.3c-0.6,0.2-1.2,0.5-1.8,0.9L420.7,204.1z M427.7,209.5c-0.5,0-0.9-0.1-1.3-0.1
				c-3.1,0-4.7,0.7-4.7,2.2c0,0.4,0.1,0.7,0.3,1s0.5,0.5,0.9,0.6c0.4,0.2,0.8,0.2,1.3,0.2c0.9,0,1.6-0.2,2.1-0.5s0.9-0.8,1.1-1.4
				C427.6,210.9,427.7,210.2,427.7,209.5z"/>
			<path d="M600.2,204.3c0.7-0.4,1.4-0.7,2-0.8c0.7-0.2,1.4-0.3,2.2-0.3c1.2,0,2.2,0.2,3,0.6s1.4,1,1.7,1.8c0.3,0.6,0.4,1.7,0.4,3.3
				v2.3c0,0.9,0,1.7,0,2.3s0.1,1.2,0.1,1.7h-2.1c0-0.3,0-0.6,0-0.9c0-0.4,0-0.8,0-1.1c-0.5,0.8-1.1,1.3-1.7,1.7s-1.5,0.5-2.5,0.5
				c-0.9,0-1.6-0.1-2.3-0.4s-1.2-0.7-1.5-1.2c-0.4-0.5-0.5-1.2-0.5-1.9c0-0.6,0.1-1.2,0.4-1.6c0.3-0.5,0.7-0.9,1.3-1.2
				c0.6-0.3,1.2-0.6,2.1-0.7c0.8-0.2,1.8-0.2,2.8-0.2c0.6,0,1.2,0,1.8,0c0-1-0.3-1.8-0.8-2.2c-0.5-0.5-1.3-0.7-2.4-0.7
				c-0.7,0-1.3,0.1-1.9,0.3c-0.6,0.2-1.2,0.5-1.8,0.9L600.2,204.3z M607.2,209.7c-0.5,0-0.9-0.1-1.3-0.1c-3.1,0-4.7,0.7-4.7,2.2
				c0,0.4,0.1,0.7,0.3,1s0.5,0.5,0.9,0.6c0.4,0.2,0.8,0.2,1.3,0.2c0.9,0,1.6-0.2,2.1-0.5c0.5-0.4,0.9-0.8,1.1-1.4
				C607.1,211.1,607.2,210.4,607.2,209.7z"/>
			<path d="M446.9,203.6l-0.2,1.9c-0.6-0.4-1.4-0.5-2.3-0.5c-0.8,0-1.5,0.2-2.2,0.5s-1.2,0.8-1.5,1.4c-0.4,0.6-0.5,1.3-0.5,2.1
				c0,0.8,0.2,1.6,0.5,2.2c0.4,0.6,0.8,1.2,1.5,1.5c0.6,0.4,1.4,0.5,2.2,0.5c0.5,0,0.9-0.1,1.3-0.2s0.8-0.3,1.3-0.6l0.2,2
				c-0.5,0.2-1,0.4-1.4,0.5c-0.5,0.1-1,0.1-1.6,0.1c-1.2,0-2.4-0.3-3.3-0.8s-1.7-1.2-2.3-2.1c-0.5-0.9-0.8-2-0.8-3.2
				c0-1.1,0.3-2.2,0.8-3.1s1.3-1.6,2.3-2.2c1-0.5,2-0.8,3.2-0.8C445.1,203.1,446,203.2,446.9,203.6z"/>
			<path d="M479.7,208.9c0,1.2-0.3,2.3-0.8,3.2c-0.5,0.9-1.2,1.7-2.2,2.2c-0.9,0.5-2,0.8-3.1,0.8s-2.2-0.3-3.1-0.8s-1.6-1.3-2.1-2.2
				c-0.5-1-0.8-2-0.8-3.2c0-0.9,0.1-1.7,0.4-2.5s0.7-1.4,1.3-2c0.5-0.6,1.2-1,1.9-1.3c0.7-0.3,1.5-0.5,2.4-0.5s1.7,0.1,2.4,0.4
				c0.7,0.3,1.4,0.7,1.9,1.3s1,1.2,1.3,2C479.6,207.2,479.7,208,479.7,208.9z M477.4,208.9c0-0.6-0.1-1.3-0.3-1.8
				c-0.2-0.6-0.4-1.1-0.8-1.5c-0.3-0.4-0.7-0.7-1.2-0.9c-0.5-0.2-0.9-0.3-1.5-0.3c-1.1,0-2,0.4-2.7,1.3c-0.7,0.8-1.1,1.9-1.1,3.2
				c0,0.9,0.2,1.6,0.5,2.3c0.3,0.7,0.8,1.2,1.3,1.6c0.6,0.4,1.2,0.6,1.9,0.6c0.7,0,1.3-0.2,1.9-0.6s1-0.9,1.3-1.6
				C477.2,210.5,477.4,209.8,477.4,208.9z M476.6,197.3l-2.8,3.3h-1.5l1.9-3.3H476.6z"/>
			<path d="M490.7,202.7l0.1,2c1-1.5,2.4-2.2,4.3-2.2c1.1,0,1.9,0.2,2.5,0.6s1.1,0.9,1.4,1.5s0.5,1.3,0.6,2.1
				c0.1,0.8,0.1,1.7,0.1,2.8v5.9h-2.3v-5.7c0-0.9,0-1.6,0-2s-0.1-0.8-0.2-1.1c-0.2-0.7-0.5-1.2-1-1.5s-1-0.5-1.7-0.5
				c-0.8,0-1.5,0.2-2.1,0.7s-1,1.1-1.3,1.9c-0.1,0.2-0.1,0.5-0.2,0.8c0,0.3-0.1,0.6-0.1,1s0,1,0,1.9v4.7h-2.3v-6.3c0-0.7,0-1.4,0-2
				s0-1.3,0-2.1c0-0.8,0-1.6-0.1-2.3h2.3V202.7z"/>
			<path d="M526.5,203l-4.6,12c-0.5,1.2-0.9,2.2-1.2,2.8c-0.3,0.6-0.8,1.2-1.5,1.7s-1.5,0.7-2.5,0.7c-0.4,0-0.9-0.1-1.5-0.2l0.1-1.8
				c0.4,0.1,0.8,0.2,1.1,0.2c0.8,0,1.4-0.3,1.8-0.8c0.5-0.5,0.8-1.2,1.1-2l-4.9-12.6h2.6l2.9,7.7c0.4,1.1,0.6,1.9,0.7,2.5
				c0.1-0.5,0.3-1.1,0.6-1.9l3-8.2h2.3V203z"/>
			<path d="M541.7,198.1h3.3c1.1,0,2,0,2.7,0.1c1.1,0.1,2.1,0.4,3,0.9s1.7,1.1,2.3,1.9s1.1,1.6,1.5,2.6c0.3,1,0.5,2.1,0.5,3.3
				c0,0.9-0.1,1.9-0.4,2.7c-0.3,0.9-0.6,1.7-1.1,2.4c-0.5,0.7-1,1.3-1.7,1.8s-1.4,0.9-2.2,1.2c-0.4,0.2-0.8,0.3-1.2,0.3
				c-0.4,0.1-0.9,0.1-1.3,0.2c-0.5,0-1.1,0.1-1.8,0.1h-3.7v-17.5H541.7z M544,200.3v13.2h1.2c1.1,0,1.9,0,2.4-0.1s1.1-0.3,1.7-0.5
				c0.7-0.3,1.3-0.8,1.8-1.4s0.9-1.3,1.2-2.1c0.3-0.8,0.4-1.6,0.4-2.6c0-0.7-0.1-1.4-0.3-2c-0.2-0.7-0.4-1.3-0.8-1.8
				c-0.3-0.5-0.7-1-1.2-1.4s-1-0.7-1.5-0.9c-0.4-0.2-0.8-0.3-1.4-0.3c-0.6-0.1-1.3-0.1-2.2-0.1L544,200.3L544,200.3z"/>
			<path d="M619.4,203.3h2l0.1,2.1c0.4-0.7,0.8-1.3,1.4-1.7c0.6-0.4,1.2-0.6,2-0.6c0.4,0,0.8,0.1,1.2,0.2v2c-0.4-0.1-0.7-0.2-1-0.2
				c-0.8,0-1.4,0.2-1.9,0.7c-0.5,0.4-0.9,1-1.1,1.7c-0.2,0.7-0.3,1.4-0.3,2.1v0.8v4.6h-2.2v-7.2
				C619.5,206.7,619.5,205.2,619.4,203.3z"/>
			<path d="M634,202.8h2l0.1,2.1c0.4-0.7,0.8-1.3,1.4-1.7c0.6-0.4,1.2-0.6,2-0.6c0.4,0,0.8,0.1,1.2,0.2v2c-0.4-0.1-0.7-0.2-1-0.2
				c-0.8,0-1.4,0.2-1.9,0.7c-0.5,0.4-0.9,1-1.1,1.7c-0.2,0.7-0.3,1.4-0.3,2.1v0.8v4.6h-2.2v-7.2C634.2,206.3,634.1,204.7,634,202.8z
				"/>
			<path d="M660.3,209.6c0,1.2-0.3,2.3-0.8,3.2c-0.5,0.9-1.2,1.7-2.2,2.2c-0.9,0.5-2,0.8-3.1,0.8s-2.2-0.3-3.1-0.8
				c-0.9-0.5-1.6-1.3-2.1-2.2c-0.5-1-0.8-2-0.8-3.2c0-0.9,0.1-1.7,0.4-2.5s0.7-1.4,1.3-2c0.5-0.6,1.2-1,1.9-1.3s1.5-0.5,2.4-0.5
				s1.7,0.1,2.4,0.4s1.4,0.7,1.9,1.3c0.5,0.6,1,1.2,1.3,2C660.2,207.9,660.3,208.7,660.3,209.6z M658,209.7c0-0.6-0.1-1.3-0.3-1.8
				c-0.2-0.6-0.4-1.1-0.8-1.5c-0.3-0.4-0.7-0.7-1.2-0.9c-0.5-0.2-0.9-0.3-1.5-0.3c-1.1,0-2,0.4-2.7,1.3c-0.7,0.8-1.1,1.9-1.1,3.2
				c0,0.9,0.2,1.6,0.5,2.3c0.3,0.7,0.8,1.2,1.3,1.6c0.6,0.4,1.2,0.6,1.9,0.6s1.3-0.2,1.9-0.6c0.6-0.4,1-0.9,1.3-1.6
				C657.9,211.3,658,210.5,658,209.7z"/>
			<path d="M706,209.1c0,1.2-0.3,2.3-0.8,3.2c-0.5,0.9-1.2,1.7-2.2,2.2c-0.9,0.5-2,0.8-3.1,0.8s-2.2-0.3-3.1-0.8
				c-0.9-0.5-1.6-1.3-2.1-2.2c-0.5-1-0.8-2-0.8-3.2c0-0.9,0.1-1.7,0.4-2.5s0.7-1.4,1.3-2c0.5-0.6,1.2-1,1.9-1.3s1.5-0.5,2.4-0.5
				s1.7,0.1,2.4,0.4s1.4,0.7,1.9,1.3c0.5,0.6,1,1.2,1.3,2S706,208.2,706,209.1z M703.7,209.2c0-0.6-0.1-1.3-0.3-1.8
				c-0.2-0.6-0.4-1.1-0.8-1.5c-0.3-0.4-0.7-0.7-1.2-0.9c-0.5-0.2-0.9-0.3-1.5-0.3c-1.1,0-2,0.4-2.7,1.3c-0.7,0.8-1.1,1.9-1.1,3.2
				c0,0.9,0.2,1.6,0.5,2.3c0.3,0.7,0.8,1.2,1.3,1.6c0.6,0.4,1.2,0.6,1.9,0.6s1.3-0.2,1.9-0.6c0.6-0.4,1-0.9,1.3-1.6
				C703.5,210.8,703.7,210,703.7,209.2z"/>
			<path d="M671.7,197.9v17.4h-2.2v-17.4H671.7z"/>
			<path d="M684.4,197.9v17.4h-2.2v-17.4H684.4z"/>
			<path d="M733.1,199.5l-0.2,2.3c-0.6-0.4-1.2-0.6-1.7-0.8c-0.5-0.1-1.1-0.2-1.7-0.2c-0.9,0-1.7,0.1-2.4,0.4s-1.4,0.7-1.9,1.3
				c-0.5,0.6-1,1.2-1.3,2s-0.4,1.6-0.4,2.5c0,1.2,0.3,2.3,0.8,3.3s1.3,1.8,2.2,2.3c0.9,0.6,2,0.8,3.2,0.8c1.1,0,2.2-0.2,3.4-0.7
				l0.2,2.3c-0.6,0.2-1.2,0.4-1.7,0.4c-0.5,0.1-1.1,0.1-1.8,0.1c-1.7,0-3.2-0.3-4.5-1s-2.3-1.7-3.1-2.9c-0.7-1.3-1.1-2.8-1.1-4.6
				c0-1.6,0.4-3,1.1-4.3c0.7-1.3,1.7-2.2,3-3c1.3-0.7,2.7-1.1,4.4-1.1C730.9,198.8,732.1,199,733.1,199.5z"/>
			<path d="M744.8,212.4v2.6h-2.6v-2.6H744.8z"/>
			<path d="M762.5,198.5l6.9,16.9h-2.6l-1.7-4.3h-7.8l-1.7,4.3h-2.5l6.8-16.9H762.5z M764.4,209.1l-1.8-4.7
				c-0.4-0.9-0.6-1.6-0.8-2.1s-0.3-1.1-0.5-1.6c-0.1,0.5-0.3,0.9-0.4,1.4c-0.2,0.4-0.5,1.3-0.9,2.5l-1.8,4.7h6.2V209.1z"/>
			<path d="M780,212.2v2.6h-2.6v-2.6H780z"/>
		</g>
		<g>
			<path d="M328.4,119.3h29.1v12.1c0-1.8,3.1-5,4.2-6.1c3.6-4.2,7.4-5.8,12.9-6.2c5.7-0.4,11-1,16.2,1.8c9,4.9,9.8,14.6,9.8,23.7
				c0,8.4,0,16.8,0,25.1c0,0.8,0,14.4,0,14.4h-29.7c0-11.6,0-23.1,0-34.7c0-4.3,0.3-12.2-6.3-11.3c0,0-4.4-1.1-5.4,5.3V184h-30.7
				v-64.7H328.4z"/>
			<g>
				<path d="M456.4,150.5c0-1.9,0-4.8,0-6.6c-0.1-0.6-0.2-1.2-0.4-1.8v17.4c0.4-1.4,0.4-2.8,0.4-4.6
					C456.4,153.5,456.4,152,456.4,150.5z"/>
				<path d="M456,92.5v35.9c-4.9-6.5-11.9-10.6-19.6-10.6c-14.9,0-27,15.2-27,33.8c0,18.7,12.1,33.8,27,33.8
					c7.7,0,14.7-4.1,19.6-10.6v10.5h30.4V92.4H456V92.5z M454.3,162.3c-0.8,1.1-1.9,2.1-3.2,2.6c-1.5,0.6-4,0.4-5.5-0.3
					c-2-1-3.6-3.2-4.1-5.5c-0.2-1.1-0.6-2.7-0.6-3.8V145c0-1.2,0.8-2.7,1.3-3.7c1.7-2.9,5.3-4.3,8.5-3.6c3.4,0.7,4.8,3.2,5.2,6.3v11
					C456,157.8,456,159.9,454.3,162.3z"/>
			</g>
			<path class="st0" d="M524.8,145.7"/>
			<path d="M540.6,118.5c0,0-40.7-6.6-45.2,27c0,0-6.4,35.4,29.7,40c0,0,25.6,1.6,37.4-3.5v-16.8c0,0-34.2,13.2-37.4-5.9h42.3
				C567.4,159.3,571.7,122.5,540.6,118.5z M540.7,145.7h-15.9c-0.6,0,0.1-7.6,0.5-8.2c3.7-6.1,8.3-6,12-3.5
				C540.9,136.3,541,141.9,540.7,145.7z"/>
			<path d="M630.4,138.1v-17.2c0,0-51.6-11.7-58.2,14.1c0,0-6.3,22.8,23.5,25.1c2.8,0.3,10.6,0.9,11.6,4.1c0.3,0.8-0.1,1.7-0.7,2.3
				c-2.7,2.7-8.3,2.8-11.7,2.8c-3.2-0.1-6.3-0.6-9.4-1.4c-2-0.5-3.9-1.1-5.8-1.8c-0.7-0.3-6.2-2-6.2-2.6l0.2,18.6
				c0,0,32.3,8.4,48.2-0.8c0,0,18.3-6.4,12.9-24.9c0,0-3.7-10.8-19.1-12.7c-3.8-0.5-7.7-0.7-11.4-1.7c-1.4-0.4-4.2-1.1-4.6-2.8
				c-0.5-2.3,3.8-4.2,5.4-4.6c1-0.3,2.1-0.3,3.1-0.4C615.8,133.9,623.3,135.3,630.4,138.1z"/>
			<path d="M701.6,139.7v-19c0,0-59.8-15.9-61.4,29.1c0,0-5.1,48.4,61.4,32.5v-18.5c0,1.1-8.8,2.8-9.6,2.9c-5.7,0.9-12,0.1-15.8-4.7
				c-4.3-5.6-4.9-13.8-0.8-19.7c3.8-5.4,10.5-6.3,16.7-5.3C693.2,137.2,701.6,138.8,701.6,139.7z"/>
			<path d="M779.4,137.4c-1.3-4.8-4.3-9.1-8.3-12.1c-9.8-7.4-23.6-7.7-35.3-6.7c-5.1,0.5-10.1,1.2-15.1,2.3
				c-0.4,0.1-6.2,1.2-6.2,1.5v16.9c0-0.7,8-2.7,9-3c6.9-1.9,14.9-3.3,21.9-1c1.8,0.6,3.5,1.4,4.9,2.5c2.1,1.7,2.4,3.1,2.3,6
				c-6.8,0-13.6,0-20.4,0c-26.7,0.6-24.6,24.1-24.6,24.1c0.5,15.1,15.8,16.6,15.8,16.6c21.9,4.8,28-10,28-10l0.2,10H780
				c0-3.9,0-7.9,0-11.8c0-7.9,0-15.9,0-23.8C780,145.1,780.4,141.2,779.4,137.4z M745.2,169.3c-8.2,1.6-9.3-4.2-9.3-4.2
				c-2.7-11.7,16.1-9.5,16.1-9.5C753.5,167.4,745.2,169.3,745.2,169.3z"/>
			<path d="M316.3,97.3v86.8h-32V97.3H316.3z"/>
		</g>
	</g>
	<g>
		<g>
			<path class="st1" d="M72.5,89.8c0,0,28.6,9,44-8L116.4,184c0,0,0.4,6.8,6.3,9h5c0,0,6.1-0.4,6.6-8.9V155l67.6,0.1
				c0,0,8.2-2.7,8.1-9.9v-6.6c0,0-0.8-6.8-7.8-8.1l-68.4-0.2l0.2-68.7h63.6c13.2,0,26.2,7.2,35.1,16.4
				c23.3,24.2,27.4,65.9,15.9,96.5c-8.3,22-26.3,43.4-51.9,43.4H72.6L72.5,89.8L72.5,89.8z"/>
			<path class="st1" d="M81.8,74.5L62,54.8c-3.7-3.7-3.7-9.7,0-13.4l19.8-19.8c3.7-3.7,9.7-3.7,13.4,0L115,41.4
				c3.7,3.7,3.7,9.7,0,13.4L95.2,74.6C91.5,78.2,85.5,78.2,81.8,74.5z"/>
		</g>
		<g>
			<path class="st2" d="M129.9,45.2C128.6,22.3,109,4.7,86,6C63.1,7.3,45.5,26.9,46.8,49.8S67.7,90.3,90.6,89
				C113.6,87.7,131.1,68.1,129.9,45.2z M88.4,83.5c-19.9,0-36-16.1-36-36s16.1-36,36-36s36,16.1,36,36S108.3,83.5,88.4,83.5z"/>
			<path class="st2" d="M57.6,91.6L22.9,129c-2.5,2.7-6.8,2.9-9.5,0.4l-2.9-2.7c-2.8-2.6-3-7-0.4-9.8l34.5-37.2
				c0.8-0.8,2.1-0.9,2.9-0.1l1,0.9l8.3-9l7.8,7.3l-8.3,9l1,0.9C58.4,89.4,58.4,90.7,57.6,91.6z"/>
		</g>
	</g>
</g>
</svg>
